<svg width="25" height="14" viewBox="0 0 25 14" fill="none" xmlns="http://www.w3.org/2000/svg">
<path d="M20.8063 1.99388C20.8063 0.897246 19.7048 0 18.3585 0H14.6868V1.99388H18.3585V4.63577L14.0993 8.97246H9.79119V3.98776H4.8956C2.19078 3.98776 0 5.77228 0 7.97552V10.9663H2.4478C2.4478 12.6213 4.08782 13.9572 6.11949 13.9572C8.15117 13.9572 9.79119 12.6213 9.79119 10.9663H15.2743L20.8063 5.33363V1.99388ZM6.11949 11.9633C5.44635 11.9633 4.8956 11.5147 4.8956 10.9663H7.34339C7.34339 11.5147 6.79264 11.9633 6.11949 11.9633Z" fill="black"/>
<path d="M9.79118 0.996887H3.67169V2.99077H9.79118V0.996887Z" fill="black"/>
<path d="M20.8063 7.97552C18.7746 7.97552 17.1346 9.31142 17.1346 10.9663C17.1346 12.6213 18.7746 13.9572 20.8063 13.9572C22.8379 13.9572 24.478 12.6213 24.478 10.9663C24.478 9.31142 22.8379 7.97552 20.8063 7.97552ZM20.8063 11.9633C20.1331 11.9633 19.5824 11.5147 19.5824 10.9663C19.5824 10.418 20.1331 9.9694 20.8063 9.9694C21.4794 9.9694 22.0302 10.418 22.0302 10.9663C22.0302 11.5147 21.4794 11.9633 20.8063 11.9633Z" fill="black"/>
</svg>
